<?xml version="1.0" encoding="utf-8"?>
<!-- Generator: Adobe Illustrator 24.0.1, SVG Export Plug-In . SVG Version: 6.00 Build 0)  -->
<svg version="1.1" id="레이어_1" xmlns="http://www.w3.org/2000/svg" xmlns:xlink="http://www.w3.org/1999/xlink" x="0px"
	 y="0px" viewBox="0 0 156.77 73" style="enable-background:new 0 0 156.77 73;" xml:space="preserve">
<style type="text/css">
	.st0{fill:#ED2B5A;}
	.st1{fill:#2F9ED8;}
	.st2{fill:#FFFFFF;}
</style>
<g>
	<path class="st0" d="M2.34,21.82c0,0-0.15,6.31,5.61,11.37c3.03,2.66,6.96,4.02,10.88,4.69c3.74,0.65,7.95-0.3,10.8,2.92
		c1.97,2.22,2.09,5.8,0.43,8.27c-1.66,2.46-4.86,3.71-7.79,3.22c-2.93-0.49-5.48-2.6-6.73-5.29c-1.23-2.65-1.43-6.01-3.77-7.75
		c-1.79-1.33-4.43-1.18-6.27,0.08c-1.84,1.26-2.91,3.45-3.14,5.67c-0.23,2.22,0.3,4.46,1.16,6.52c2.28,5.51,6.94,9.99,12.55,12.03
		c11.31,4.11,25.3-2.44,27.73-14.66c0,0,1.98-9.02-3.3-15.6c-5.28-6.59-13.64-7.16-18.04-7.16c-4.35,0-7.55-4.08-6.47-8.33
		c0.67-2.62,3-4.74,5.68-5.14c2.68-0.4,5.53,0.93,6.94,3.24c1.26,2.07,1.4,4.73,2.86,6.66c1.12,1.47,2.97,2.35,4.82,2.28
		c1.85-0.07,3.63-1.08,4.64-2.62c0.9-1.38,1.17-3.08,1.13-4.72c-0.1-4.62-2.57-9.04-6.21-11.89c-7.11-5.56-18.56-5.5-25.79-0.19
		C4.69,9.33,2.32,15.31,2.34,21.82"/>
	<path class="st0" d="M23.14,66.01c-2.57,0-5.12-0.43-7.51-1.3C9.73,62.57,4.77,57.81,2.36,51.99c-1.05-2.55-1.47-4.95-1.25-7.13
		c0.28-2.74,1.66-5.2,3.68-6.58c2.39-1.64,5.57-1.65,7.73-0.04c1.92,1.43,2.6,3.6,3.26,5.7c0.28,0.91,0.55,1.76,0.91,2.53
		c1.1,2.38,3.37,4.17,5.8,4.58c2.51,0.42,5.2-0.68,6.54-2.68c1.37-2.03,1.22-4.99-0.33-6.73c-1.72-1.93-4.06-2.06-6.76-2.2
		c-1.09-0.06-2.21-0.12-3.32-0.31c-4.81-0.83-8.68-2.51-11.5-4.99c-6.02-5.3-6.04-11.84-6.04-12.32C1.07,14.47,3.99,8.28,9.32,4.37
		c7.82-5.73,19.82-5.64,27.31,0.22c4.08,3.19,6.59,8,6.7,12.85c0.05,2.17-0.4,4-1.34,5.43c-1.23,1.89-3.4,3.11-5.65,3.19
		c-2.25,0.1-4.5-0.98-5.87-2.78c-0.93-1.22-1.37-2.61-1.8-3.96c-0.33-1.02-0.64-1.99-1.13-2.81c-1.15-1.89-3.48-2.98-5.68-2.65
		c-2.19,0.33-4.1,2.06-4.65,4.21c-0.42,1.65-0.06,3.35,0.97,4.68c1.03,1.33,2.59,2.09,4.28,2.09c8.56,0,14.96,2.57,19.02,7.63
		c5.59,6.97,3.63,16.27,3.55,16.66c-1.16,5.82-4.83,10.75-10.34,13.85C31.14,64.99,27.12,66.01,23.14,66.01 M8.79,39.57
		c-0.89,0-1.81,0.26-2.58,0.79c-1.42,0.97-2.39,2.75-2.6,4.76c-0.18,1.77,0.18,3.76,1.07,5.91c2.14,5.18,6.56,9.41,11.82,11.33
		c5.4,1.97,11.74,1.38,16.96-1.55c4.85-2.73,8.09-7.05,9.11-12.17c0.02-0.11,1.78-8.55-3.05-14.57c-3.56-4.44-9.3-6.69-17.05-6.69
		c-2.47,0-4.75-1.12-6.27-3.06c-1.51-1.95-2.03-4.44-1.43-6.84c0.79-3.1,3.55-5.6,6.71-6.08c3.16-0.48,6.54,1.1,8.2,3.83
		c0.65,1.07,1.02,2.23,1.38,3.35c0.38,1.2,0.74,2.33,1.41,3.2c0.87,1.14,2.36,1.85,3.77,1.79c1.43-0.05,2.85-0.86,3.63-2.06
		c0.65-1,0.97-2.35,0.93-4c-0.09-4.11-2.24-8.19-5.73-10.93C28.53,1.46,17.65,1.38,10.81,6.4c-5.98,4.38-7.22,10.8-7.21,15.42v0.03
		c0,0.25-0.02,5.82,5.18,10.39c2.47,2.17,5.92,3.65,10.27,4.4c0.96,0.17,1.96,0.22,3.02,0.28c2.85,0.15,6.09,0.32,8.51,3.04
		c2.31,2.6,2.54,6.82,0.54,9.8c-1.9,2.84-5.54,4.34-9.04,3.76c-3.27-0.55-6.2-2.85-7.66-6c-0.43-0.92-0.73-1.9-1.03-2.84
		c-0.56-1.8-1.09-3.49-2.36-4.43C10.41,39.8,9.62,39.57,8.79,39.57"/>
	<path class="st1" d="M60.64,36.79c-1.33-0.92-2.59-1.9-3.5-3.22c-1.06-1.54-1.52-3.43-1.62-5.3c-0.1-1.87,0.14-3.74,0.38-5.59
		c0.5-3.82,2.75-0.73,3.94,0.76c2.02,2.55,5.09,4.01,7.82,5.67c4.78,2.89,8.39,6.74,9.69,12.25c1.19,5.04,0.35,10.57-2.49,14.93
		c-0.9,1.37-1.99,2.62-3.23,3.69c-0.26,0.22-0.52,0.43-0.8,0.64c-11.47,8.71-28.26,0.92-29.92-12.97
		c-0.58-4.85,0.39-9.88,3.47-13.68c0,0,1.53-1.86,2.75-2.42c1.81-0.83,4.03-0.36,5.46,0.99c1.81,1.72,1.82,4.2,1.02,6.41
		c-0.63,1.73-1.6,3.36-1.94,5.17c-0.64,3.35,1.23,7.01,4.32,8.48c3.09,1.47,7.13,0.61,9.35-1.98c2.22-2.6,2.42-6.7,0.47-9.5
		C64.51,39.27,62.51,38.09,60.64,36.79"/>
	<path class="st1" d="M59.95,65.97c-2.71,0-5.46-0.55-8.11-1.68c-6.91-2.93-11.74-9.23-12.6-16.44c-0.68-5.73,0.68-11.04,3.83-14.93
		c0.3-0.37,1.85-2.21,3.35-2.89c2.39-1.1,5.33-0.58,7.31,1.3c0.36,0.34,0.67,0.71,0.94,1.1c-0.47-1.21-0.74-2.58-0.82-4.07
		c-0.11-2.03,0.15-3.99,0.4-5.89c0.09-0.68,0.36-2.73,2.1-3.21c1.92-0.52,3.43,1.39,4.64,2.94l0.17,0.22
		c1.45,1.83,3.57,3.06,5.81,4.35c0.53,0.3,1.05,0.61,1.56,0.92c5.74,3.47,9.16,7.82,10.45,13.3c1.33,5.63,0.34,11.54-2.72,16.23
		c-0.99,1.52-2.19,2.89-3.55,4.05c-0.28,0.24-0.57,0.48-0.87,0.7C68.34,64.61,64.2,65.97,59.95,65.97 M49.04,32.82
		c-0.43,0-0.85,0.08-1.22,0.25c-0.59,0.27-1.63,1.33-2.15,1.96c-2.57,3.18-3.68,7.59-3.1,12.42c0.72,6.02,4.77,11.29,10.58,13.75
		c5.68,2.41,11.91,1.69,16.66-1.92c0.25-0.19,0.49-0.38,0.72-0.58c1.12-0.96,2.1-2.07,2.92-3.33c2.52-3.87,3.37-8.97,2.27-13.63
		c-1.08-4.56-4-8.23-8.92-11.21c-0.49-0.3-1-0.59-1.51-0.88c-2.41-1.4-4.91-2.84-6.76-5.17l-0.18-0.23
		c-0.19-0.24-0.51-0.64-0.83-1.01c-0.21,1.64-0.41,3.32-0.32,4.93c0.1,1.8,0.54,3.3,1.33,4.44c0.72,1.05,1.75,1.87,3.07,2.79
		l0.83,0.57c1.71,1.16,3.47,2.36,4.75,4.18c2.38,3.42,2.14,8.38-0.56,11.55c-2.7,3.17-7.58,4.2-11.34,2.41
		c-3.77-1.79-6.03-6.22-5.25-10.31c0.26-1.36,0.79-2.55,1.3-3.71c0.25-0.57,0.5-1.14,0.71-1.72c0.41-1.13,0.87-3.23-0.6-4.63
		C50.79,33.15,49.9,32.82,49.04,32.82 M55.45,34.03c0.53,1.62,0.45,3.51-0.27,5.49c-0.24,0.65-0.52,1.3-0.8,1.94
		c-0.46,1.03-0.89,2-1.07,2.98c-0.49,2.59,1,5.52,3.4,6.66c2.4,1.14,5.63,0.46,7.35-1.56c1.72-2.01,1.88-5.29,0.37-7.45
		c-0.92-1.32-2.36-2.29-3.88-3.33l-0.86-0.59c-1.41-0.98-2.86-2.1-3.92-3.65C55.65,34.35,55.55,34.19,55.45,34.03"/>
	<path class="st0" d="M115.65,44.55c0,9.93-6.09,18.3-19.26,18.3c-10.02,0-19.34-8.37-19.34-18.3c0-10.11,8.28-18.3,18.3-18.3
		c4.32,0,8.46,1.65,11.5,4.14V6.47c0-1.75,2.42-3.22,4.35-3.22c1.93,0,4.45,1.47,4.45,3.22V44.55z M106.67,44.55
		c0-5.59-4.01-10.45-10.27-10.45c-5.86,0-10.45,4.1-10.45,10.45c0,5.33,4.1,10.27,10.45,10.27
		C102.65,54.82,106.67,49.88,106.67,44.55"/>
	<path class="st0" d="M96.4,65.37c-11.65,0-21.86-9.73-21.86-20.82c0-11.48,9.34-20.81,20.81-20.81c3.06,0,6.17,0.74,8.98,2.1V6.47
		c0-3.28,3.63-5.73,6.87-5.73c3.29,0,6.96,2.45,6.96,5.73v38.08C118.17,57.19,109.62,65.37,96.4,65.37 M95.35,28.76
		c-8.7,0-15.79,7.08-15.79,15.79c0,8.26,8.02,15.79,16.83,15.79c10.48,0,16.74-5.9,16.74-15.79V6.62c-0.25-0.32-1.17-0.86-1.93-0.86
		c-0.74,0-1.62,0.52-1.84,0.84v29.1l-4.11-3.36C102.48,30.07,98.87,28.76,95.35,28.76 M96.4,57.33c-8.12,0-12.97-6.5-12.97-12.78
		c0-7.51,5.45-12.96,12.97-12.96c7.29,0,12.78,5.57,12.78,12.96C109.18,50.83,104.4,57.33,96.4,57.33 M96.4,36.61
		c-4.75,0-7.94,3.19-7.94,7.94c0,3.76,2.78,7.75,7.94,7.75c5.03,0,7.75-3.99,7.75-7.75C104.15,40.61,101.49,36.61,96.4,36.61"/>
	<path class="st0" d="M146.7,68.75c0,0.62-0.5,1.12-1.12,1.12c-0.62,0-1.12-0.5-1.12-1.12c0-0.62,0.5-1.12,1.12-1.12
		C146.2,67.64,146.7,68.13,146.7,68.75"/>
	<path class="st0" d="M145.58,70.71c-1.08,0-1.96-0.88-1.96-1.95c0-1.08,0.88-1.95,1.96-1.95c1.08,0,1.95,0.88,1.95,1.95
		C147.53,69.83,146.66,70.71,145.58,70.71 M145.58,68.47c-0.15,0-0.28,0.12-0.28,0.28c0,0.31,0.56,0.31,0.56,0
		C145.86,68.6,145.73,68.47,145.58,68.47"/>
	<path class="st0" d="M150.5,70.57c0,0.62-0.5,1.12-1.12,1.12c-0.62,0-1.12-0.5-1.12-1.12c0-0.62,0.5-1.12,1.12-1.12
		C150,69.46,150.5,69.96,150.5,70.57"/>
	<path class="st0" d="M149.38,72.53c-1.08,0-1.96-0.88-1.96-1.95c0-1.08,0.88-1.95,1.96-1.95c1.08,0,1.96,0.88,1.96,1.95
		C151.34,71.65,150.46,72.53,149.38,72.53 M149.38,70.3c-0.15,0-0.28,0.12-0.28,0.28c0,0.31,0.56,0.31,0.56,0
		C149.66,70.42,149.53,70.3,149.38,70.3"/>
	<path class="st0" d="M154.09,39.22c-2.34-8.6-11.43-14.26-20.08-14.11c-3.56,0.06-7.12,1.02-10.31,2.95
		c-10.62,6.45-12.91,21.14-4.31,30.29c3.51,3.74,8.52,5.95,13.62,6.23c2.56,0.14,4.95-0.22,7.31-1.19c0.5-0.2,3.43-1.4,3.43-2.17
		v2.21c0,0-0.17,2.26,1.54,2.22c0.92-0.02,1.62-0.57,1.87-1.44c-0.04,0.5,0.09,1,0.43,1.38c0.37,0.42,0.92,0.65,1.47,0.72
		c0.62,0.08,1.31-0.05,1.73-0.5c0.38-0.41,0.48-0.99,0.49-1.55c0-0.49-0.07-1,0.02-1.47c0.12,0.85,0.88,1.17,1.67,1.19
		c1.49,0.04,1.72-1.4,1.72-1.4v-0.66c0-4.12,0.08-6.84,0.07-10.96C154.78,47.13,155.1,42.93,154.09,39.22 M133.99,52.94
		c-4.46,0-7.76-3.65-7.95-7.96c-0.19-4.3,3.79-7.95,7.95-7.95c4.46,0,7.76,3.64,7.95,7.95C142.14,49.28,138.15,52.94,133.99,52.94"
		/>
	<path class="st0" d="M149.42,67.17c-0.15,0-0.3-0.01-0.46-0.03c-0.8-0.11-1.51-0.46-1.99-0.99c-0.04-0.05-0.08-0.09-0.11-0.14
		c-0.44,0.3-0.96,0.47-1.54,0.48c-0.64,0.02-1.24-0.21-1.66-0.66c-0.84-0.88-0.75-2.31-0.74-2.47v-0.27
		c-0.56,0.32-1.29,0.67-2.26,1.07c-2.42,1-4.93,1.41-7.69,1.26c-5.42-0.29-10.59-2.66-14.18-6.49c-4.2-4.47-6.13-10.54-5.3-16.65
		c0.85-6.23,4.41-11.67,9.78-14.93c3.21-1.95,6.92-3.01,10.73-3.08c0.12,0,0.24,0,0.36,0c9.45,0,18.24,6.28,20.54,14.73v0
		c0.84,3.1,0.79,6.45,0.74,9.69c-0.01,0.76-0.02,1.52-0.02,2.26c0,2.15-0.02,3.91-0.04,5.69c-0.02,1.64-0.04,3.29-0.04,5.27v0.66
		c-0.13,0.88-0.83,2.21-2.58,2.24c-0.31-0.01-0.6-0.05-0.86-0.13c-0.07,0.7-0.3,1.27-0.69,1.69
		C150.94,66.89,150.22,67.17,149.42,67.17 M148.62,56.31L148,64.27c-0.02,0.18-0.01,0.51,0.22,0.76c0.21,0.23,0.56,0.39,0.96,0.45
		c0.44,0.06,0.82-0.04,1.01-0.24c0.17-0.18,0.26-0.52,0.27-0.99c0-0.15,0-0.29-0.01-0.44c-0.02-0.36-0.03-0.77,0.05-1.19l0.95-4.71
		l0.7,4.76c0.04,0.3,0.33,0.46,0.86,0.47h0.03c0.69,0,0.82-0.58,0.84-0.7l-0.01-0.53c0-1.98,0.02-3.64,0.04-5.29
		c0.02-1.78,0.04-3.54,0.04-5.67c0-0.75,0.01-1.51,0.02-2.28c0.05-3.13,0.09-6.36-0.69-9.23v0c-2.13-7.84-10.4-13.64-19.26-13.49
		c-3.51,0.06-6.93,1.04-9.89,2.83c-4.93,3-8.21,8-8.99,13.72c-0.76,5.61,1.01,11.17,4.86,15.28c3.3,3.52,8.06,5.69,13.06,5.96
		c2.5,0.13,4.77-0.23,6.95-1.13c2.58-1.06,2.95-1.6,2.96-1.6c-0.01,0.02-0.05,0.1-0.05,0.21h1.68v2.21
		c-0.02,0.33,0.03,0.98,0.29,1.25c0.06,0.06,0.17,0.12,0.4,0.13c0.54-0.01,0.93-0.31,1.09-0.85L148.62,56.31z M133.99,53.78
		c-4.71,0-8.57-3.85-8.79-8.75c-0.1-2.17,0.74-4.3,2.36-5.99c1.73-1.81,4.07-2.84,6.43-2.84c4.71,0,8.57,3.85,8.79,8.76
		c0.1,2.17-0.74,4.29-2.36,5.98C138.7,52.74,136.35,53.78,133.99,53.78 M133.99,37.87c-1.88,0-3.83,0.87-5.22,2.33
		c-1.3,1.36-1.97,3.05-1.9,4.75c0.18,4.01,3.3,7.15,7.12,7.15c1.88,0,3.83-0.87,5.22-2.32c1.3-1.36,1.97-3.05,1.9-4.75
		C140.93,41.01,137.8,37.87,133.99,37.87"/>
	<path class="st2" d="M148.83,28.75c0.24,0.43,0.47,0.86,0.71,1.29c-0.69,0.08-1.4,0.08-2.08,0.22c-0.68,0.14-1.37,0.44-1.79,0.99
		c-0.43,0.56-0.7,1.5-0.53,2.2c0.06,0.27,0.23,0.53,0.47,0.65c0.6,0.29,1.28-0.25,1.51-0.78c0.61-1.37,1.18-2.16,2.6-2.16
		c0.97,0,1.92,1,1.9,2.1c0,0.09,0,0.81-0.09,2.82l-1.38,0.6c0.05-0.77,0.12-3.06,0.11-3.27c0-0.4-0.25-0.66-0.75-0.66
		c-0.44-0.03-0.85,0.67-1.28,1.65c-0.41,0.9-1.32,1.32-2.14,1.32c-1.1,0-2.09-0.63-2.41-1.71c-0.16-0.54-0.15-1.12-0.04-1.68
		c0.33-1.73,1.53-2.85,3.23-3.23c0.35-0.08,0.7-0.13,1.05-0.18C147.97,28.93,148.84,28.77,148.83,28.75"/>
	<polygon class="st2" points="151.53,36.09 151.53,37.89 149.17,38.82 151.53,39.75 151.53,41.49 147.12,39.56 143.75,39.54 
		143.75,38.02 147.13,38.02 	"/>
	<path class="st2" d="M143.75,38.76l1.36,0.7c0.03,0.71,0,4.11,0,4.59c0,0.49,0.31,0.83,0.98,0.84c0.49,0,0.83-0.37,1.02-0.84
		c0.61-1.37,1.18-2.16,2.6-2.16c0.57,0,1.1,0.32,1.44,0.77c0.36,0.48,0.45,1.19,0.37,1.78c-0.1,0.73-0.54,1.38-1.26,1.6v-0.95v-0.94
		c0-0.4-0.25-0.66-0.75-0.66c-0.44-0.03-0.85,0.67-1.28,1.65c-0.41,0.9-1.32,1.32-2.14,1.32c-0.97,0.01-2.35-0.49-2.35-2.34V38.76z"
		/>
	<polygon class="st2" points="151.52,52.1 150.26,52.1 150.26,49.73 143.75,49.73 143.75,48.23 150.26,48.23 150.26,45.01 
		151.52,44.36 	"/>
	<polygon class="st2" points="143.7,51.69 151.5,51.69 151.5,56.18 150.25,56.18 150.25,53.19 148.42,53.19 148.42,56.19 
		147.19,56.19 147.19,53.19 144.96,53.19 144.96,57.79 143.7,57.79 	"/>
	<path class="st2" d="M149.01,59.69c0.75,0.02,1.14-0.19,1.14-0.62c0-0.39-0.33-0.63-1.16-0.61h-5.29v-1.51h5.5
		c1.3,0.02,2.41,0.82,2.41,2.14c0,0.54-0.22,1-0.56,1.35c0.34,0.34,0.56,0.81,0.56,1.37c0,1.32-1.12,2.13-2.41,2.14h-6.41l-0.01-1.6
		l6.22,0.09c0.83,0.01,1.16-0.23,1.16-0.62c0-0.42-0.4-0.63-1.14-0.62h-5.32v-1.52H149.01z"/>
	<path class="st1" d="M45.32,27.23c-0.24-0.16-0.47-0.36-0.66-0.6c-1.13-1.41-0.26-3.49,1.58-3.6c0.63-0.04,1.27,0.24,1.7,0.7
		c0.34,0.38,0.47,0.89,0.6,1.37c0.11,0.38,0.25,0.73,0.51,1.04c0.21,0.24,0.56,0.53,0.51,0.89c-0.12,0.9-1.41,0.88-2.07,0.84
		C46.73,27.81,45.95,27.64,45.32,27.23"/>
	<path class="st1" d="M47.91,28.72c-0.15,0-0.31-0.01-0.48-0.02c-1.02-0.07-1.89-0.33-2.56-0.77l0,0c-0.33-0.21-0.62-0.48-0.85-0.77
		c-0.73-0.91-0.89-2.13-0.42-3.18c0.47-1.05,1.44-1.71,2.6-1.78c0.89-0.06,1.77,0.31,2.37,0.98c0.45,0.49,0.62,1.1,0.76,1.6
		c0.13,0.45,0.22,0.66,0.37,0.83c0.34,0.37,0.79,0.86,0.7,1.54C50.31,27.75,49.87,28.72,47.91,28.72 M45.78,26.53
		c0.43,0.28,1.02,0.45,1.76,0.5c0.68,0.05,0.99-0.04,1.12-0.09c-0.04-0.02-0.08-0.06-0.11-0.1l-0.15-0.16
		c-0.39-0.46-0.57-0.96-0.68-1.36c-0.13-0.48-0.23-0.83-0.41-1.03c-0.26-0.29-0.64-0.43-1.03-0.43c-0.54,0.03-0.96,0.32-1.17,0.79
		c-0.21,0.48-0.14,1.03,0.2,1.45C45.45,26.27,45.6,26.41,45.78,26.53"/>
	<path class="st1" d="M52.32,21.06c-0.01-0.29-0.05-0.58-0.13-0.87c-0.48-1.69-2.24-2.03-3.07-0.52c-0.28,0.52-0.37,1.21-0.23,1.82
		c0.11,0.49,0.41,0.86,0.67,1.22c0.21,0.29,0.39,0.59,0.49,0.97c0.08,0.31,0.13,0.75,0.39,0.9c0.65,0.36,1.17-0.74,1.42-1.34
		C52.14,22.56,52.34,21.81,52.32,21.06"/>
	<path class="st1" d="M50.71,25.48c-0.23,0-0.46-0.06-0.67-0.18c-0.54-0.3-0.68-0.91-0.76-1.27c-0.09-0.37-0.19-0.57-0.39-0.83
		c-0.33-0.45-0.67-0.91-0.81-1.53c-0.19-0.81-0.07-1.71,0.31-2.41c0.54-0.98,1.43-1.5,2.4-1.38c1.03,0.12,1.87,0.91,2.21,2.08
		c0.1,0.34,0.15,0.7,0.16,1.08c0.02,0.77-0.16,1.62-0.52,2.51c-0.43,1.06-0.91,1.65-1.49,1.85C51,25.45,50.85,25.48,50.71,25.48
		 M50.55,19.54c-0.25,0-0.5,0.19-0.69,0.53c-0.18,0.33-0.24,0.82-0.15,1.22c0.07,0.28,0.25,0.54,0.47,0.83
		c0.27,0.36,0.52,0.76,0.67,1.29c0.07-0.13,0.14-0.29,0.23-0.5c0.28-0.68,0.41-1.3,0.4-1.84c0-0.23-0.04-0.46-0.1-0.66
		c-0.14-0.5-0.45-0.84-0.78-0.88C50.59,19.54,50.57,19.54,50.55,19.54"/>
</g>
</svg>
